<svg xmlns="http://www.w3.org/2000/svg" viewBox="0 18 210 220">
  <defs>
    <clipPath clipPathUnits="userSpaceOnUse" id="h">
      <path fill="#fff" stroke="#fff" stroke-width="1.6" d="M-28.48 -29.34H164.13000000000002V176.06H-28.48z"/>
    </clipPath>
    <clipPath clipPathUnits="userSpaceOnUse" id="f">
      <path fill="#fff" stroke="#fff" stroke-width="1.59" d="M-28.49 -28.93H164.13V174.93H-28.49z"/>
    </clipPath>
    <clipPath clipPathUnits="userSpaceOnUse" id="e">
      <path fill="#fff" stroke="#fff" stroke-width="1.2" d="M0.6 0.6H149.4V149.4H0.6z"/>
    </clipPath>
    <clipPath clipPathUnits="userSpaceOnUse" id="c">
      <path fill="#fff" stroke="#fff" stroke-width="1.2" d="M0.6 0.6H149.4V149.4H0.6z"/>
    </clipPath>
    <clipPath clipPathUnits="userSpaceOnUse" id="b">
      <path fill="#fff" stroke="#fff" stroke-width="1.2" d="M0.6 0.6H149.4V149.4H0.6z"/>
    </clipPath>
    <clipPath clipPathUnits="userSpaceOnUse" id="a">
      <path transform="scale(1 -1)" fill="#fff" stroke="#fff" stroke-width="1.2" d="M0.6 0.6H149.4V149.4H0.6z"/>
    </clipPath>
    <mask maskUnits="userSpaceOnUse" id="d">
      <g fill="#fff" stroke-width="1.03">
        <path transform="rotate(30)" d="M 1.3397465,22.320509 H 213.33975 v 30 H 1.3397465 Z"/>
        <path transform="scale(-1 1) rotate(30)" d="M -127.34937,96.619202 H 84.650627 V 126.6192 H -127.34937 Z"/>
      </g>
    </mask>
    <mask maskUnits="userSpaceOnUse" id="g">
      <g fill="#fff" stroke-width="1.03">
        <path transform="scale(1.29435 1.38032) rotate(30 29.49 -53.1)" d="M 1.3397465,22.320509 H 213.33975 v 30 H 1.3397465 Z"/>
        <path transform="scale(-1.29435 1.38032) rotate(30 52.09 31.24)" d="M -127.34937,96.619202 H 84.650627 V 126.6192 H -127.34937 Z"/>
      </g>
    </mask>
  </defs>
  <rect width="150" height="150" y="-150" rx="20" ry="20" transform="matrix(1.33021 0 0 -1.29465 5.1 30.82)" clip-path="url(#a)" fill="#0063be"/>
  <g clip-path="url(#b)" fill="#fff" transform="matrix(1.33021 0 0 1.29465 5.1 30.82)">
    <path transform="rotate(30)" d="M 1.3397465,22.320509 H 213.33975 v 30 H 1.3397465 Z"/>
    <path transform="scale(-1 1) rotate(30)" d="M -127.34937,96.619202 H 84.650627 V 126.6192 H -127.34937 Z"/>
  </g>
  <path d="m 52.114316,34.003851 c -4.83077,5.157663 -7.85659,12.671104 -7.73909,19.738324 0.24545,14.768245 6.89937,20.358808 17.54041,40.684553 3.833078,8.944052 7.83369,18.408162 11.638594,34.082492 0.528772,2.31217 1.044462,4.45981 1.283039,4.6459 0.238339,0.18597 0.754257,-1.96913 1.283005,-4.28117 3.804928,-15.67446 7.805539,-25.13098 11.638626,-34.075052 10.64103,-20.325745 17.29499,-25.916307 17.54041,-40.684663 0.1175,-7.067104 -2.91583,-14.588006 -7.746572,-19.745784 -5.51834,-5.891913 -13.841726,-10.2523 -22.715469,-10.4346 -8.873776,-0.182529 -17.204613,4.178088 -22.722953,10.07 z" clip-path="url(#c)" fill="#fff" transform="matrix(1.33021 0 0 1.29465 5.1 30.82)"/>
  <path d="m 52.114317,32.933782 c -4.83077,5.229045 -7.85659,12.846474 -7.73909,20.011508 0.24545,14.972649 6.89937,20.640585 17.54041,41.247646 3.833078,9.067844 7.83369,18.662934 11.638594,34.554204 0.528772,2.34417 1.044462,4.52154 1.283039,4.7102 0.238339,0.18855 0.754257,-1.99638 1.283005,-4.34042 3.804928,-15.8914 7.805539,-25.4788 11.638626,-34.546663 C 98.399927,73.963196 105.05389,68.29526 105.29931,53.322499 105.41681,46.157587 102.38348,38.532594 97.552737,33.303428 92.034399,27.329962 83.711013,22.909232 74.83727,22.724409 65.963494,22.539352 57.632657,26.960325 52.114317,32.933782 Z" mask="url(#d)" clip-path="url(#e)" fill="#0063be" transform="matrix(1.33021 0 0 1.29465 5.1 30.82)"/>
  <g transform="matrix(1.02762 0 0 .94501 35.16 58.94)" clip-path="url(#f)" fill="#0063be" stroke="#0063be" stroke-width="1.01">
    <ellipse cy="50.89" cx="67.66" rx="11.65" ry="11.66"/>
    <path d="m 58.363429,30.147264 1.267751,-0.55641 17.651893,45.154616 -1.267752,0.556406 z"/>
    <path d="m 61.559405,29.855343 -4.450057,1.952671 c -0.349929,0.154133 -0.751969,-0.02197 -0.896048,-0.394033 v 0 c -0.145465,-0.370779 0.02074,-0.796769 0.371877,-0.949436 l 4.450058,-1.952672 c 0.349929,-0.154133 0.751969,0.02197 0.896048,0.394033 v 0 c 0.144095,0.370779 -0.02199,0.795313 -0.371878,0.949437 z m 17.50383,44.572722 -4.45006,1.952675 c -0.349928,0.154129 -0.751965,-0.02197 -0.896048,-0.394037 v 0 c -0.145464,-0.370776 0.02074,-0.796769 0.371877,-0.949433 l 4.450057,-1.952682 c 0.349931,-0.154129 0.751965,0.02197 0.896049,0.394037 v 0 c 0.144094,0.370776 -0.02198,0.796776 -0.371875,0.94944 z"/>
    <path d="m 59.629972,75.300579 -1.26775,-0.556405 17.651893,-45.154616 1.267749,0.556414 z"/>
    <path d="m 57.107975,73.084603 4.450057,1.952675 c 0.349929,0.154136 0.515948,0.578678 0.371877,0.949439 v 0 c -0.145464,0.370783 -0.546135,0.546694 -0.896048,0.39403 l -4.450058,-1.952682 c -0.349928,-0.154129 -0.515951,-0.578671 -0.371876,-0.949432 v 0 c 0.145465,-0.370784 0.546136,-0.546694 0.896048,-0.394038 z m 17.5052,-44.572722 4.45006,1.952672 c 0.349925,0.154133 0.515947,0.578675 0.371875,0.949437 v 0 c -0.145467,0.37078 -0.546141,0.546696 -0.896054,0.394033 l -4.450052,-1.952671 c -0.349929,-0.154133 -0.515952,-0.578676 -0.371877,-0.949438 v 0 c 0.144096,-0.370778 0.546136,-0.546696 0.896048,-0.394033 z"/>
    <path d="M 88.869309,42.423288 89.39443,43.766575 46.778986,62.470232 46.253869,61.126946 Z"/>
    <path d="m 89.144811,45.809695 -1.842868,-4.715213 c -0.145463,-0.370776 0.02076,-0.796769 0.37188,-0.949433 v 0 c 0.349926,-0.154136 0.751965,0.02197 0.896045,0.39403 l 1.842869,4.715207 c 0.145467,0.370783 -0.02076,0.796776 -0.371876,0.949439 v 0 c -0.349931,0.152686 -0.750596,-0.02329 -0.89605,-0.39403 z m -42.066269,18.54676 -1.842873,-4.715206 c -0.145464,-0.370776 0.02074,-0.796768 0.371878,-0.949432 v 0 c 0.349929,-0.154136 0.751969,0.02197 0.896048,0.39403 l 1.842868,4.715206 c 0.145464,0.370776 -0.02074,0.796769 -0.371877,0.94944 v 0 c -0.349929,0.152678 -0.751966,-0.02329 -0.896044,-0.394038 z"/>
    <path d="m 46.252599,43.766575 0.525117,-1.343287 42.615445,18.703658 -0.525116,1.343286 z"/>
    <path d="m 48.346454,41.093032 -1.842868,4.715206 c -0.145464,0.370776 -0.546136,0.546686 -0.896048,0.39403 v 0 C 45.257609,46.048139 45.09159,45.623597 45.235661,45.252836 l 1.842872,-4.715207 c 0.145465,-0.370783 0.546137,-0.546694 0.896049,-0.394037 v 0 c 0.349928,0.154129 0.515948,0.578678 0.371872,0.94944 z m 42.066274,18.548217 -1.842869,4.715206 c -0.145463,0.370784 -0.546132,0.546694 -0.896045,0.394038 v 0 c -0.349931,-0.154129 -0.515947,-0.578679 -0.37188,-0.94944 l 1.842868,-4.715206 c 0.145468,-0.370783 0.546142,-0.546687 0.896054,-0.39403 v 0 c 0.349886,0.152678 0.515947,0.578671 0.371876,0.949432 z M 67.137413,25.548703 h 1.372202 v 53.79667 h -1.372202 z"/>
    <path d="m 70.567921,27.002663 h -5.488815 c -0.378723,0 -0.686103,-0.325672 -0.686103,-0.726978 v 0 c 0,-0.401288 0.307359,-0.726982 0.686103,-0.726982 h 5.488815 c 0.378724,0 0.6861,0.325672 0.6861,0.726982 v 0 c 0,0.401289 -0.30736,0.726978 -0.6861,0.726978 z"/>
    <path d="m 42.43775,53.174019 v -1.453961 h 50.771526 v 1.453961 z"/>
    <path d="m 43.809953,49.539105 v 5.815867 c 0,0.401288 -0.307361,0.726977 -0.686104,0.726977 v 0 c -0.378724,0 -0.686099,-0.325674 -0.686099,-0.726977 v -5.815867 c 0,-0.401288 0.307359,-0.726977 0.686099,-0.726977 v 0 c 0.378723,0 0.686104,0.325674 0.686104,0.726977 z m 49.399323,0 v 5.815867 c 0,0.401288 -0.30735,0.726977 -0.6861,0.726977 v 0 c -0.37872,0 -0.686097,-0.325674 -0.686097,-0.726977 v -5.815867 c 0,-0.401288 0.30736,-0.726977 0.686097,-0.726977 v 0 c 0.37873,0 0.6861,0.325674 0.6861,0.726977 z M 70.567921,79.345373 h -5.488815 c -0.378723,0 -0.686103,-0.325674 -0.686103,-0.726977 v 0 c 0,-0.401288 0.307359,-0.726984 0.686103,-0.726984 h 5.488815 c 0.378724,0 0.6861,0.325674 0.6861,0.726984 v 0 c 0,0.401288 -0.30736,0.726977 -0.6861,0.726977 z"/>
    <path d="m 84.491542,33.758399 0.970278,1.028126 -34.305359,36.34812 -0.970279,-1.028122 z"/>
    <path d="M 86.548605,36.718052 82.668008,32.60624 c -0.267571,-0.283512 -0.267571,-0.744428 0,-1.027949 v 0 c 0.26757,-0.283512 0.702572,-0.283512 0.970151,0 l 3.880593,4.11181 c 0.26757,0.283514 0.26757,0.744428 0,1.027951 v 0 c -0.26757,0.283513 -0.701194,0.283513 -0.970147,0 z"/>
    <path d="m 50.185211,34.786525 0.970274,-1.028126 34.305361,36.348124 -0.970278,1.028122 z"/>
    <path d="m 52.979015,32.60624 -3.880592,4.111812 c -0.26757,0.283513 -0.702566,0.283513 -0.970145,0 v 0 c -0.26757,-0.283514 -0.26757,-0.744429 0,-1.027951 l 3.880592,-4.11181 c 0.26757,-0.283512 0.702566,-0.283512 0.970145,0 v 0 c 0.26757,0.283512 0.26757,0.742972 0,1.027949 z m 34.54111,36.597732 -3.880593,4.111809 c -0.26757,0.283517 -0.702572,0.283517 -0.970151,0 v 0 c -0.267571,-0.283516 -0.267571,-0.744423 0,-1.027947 l 3.880597,-4.111809 c 0.267571,-0.283516 0.702568,-0.283516 0.970147,0 v 0 c 0.267571,0.283509 0.267571,0.744423 0,1.027947 z m -35.511255,4.113267 -3.880592,-4.11181 c -0.26757,-0.283516 -0.26757,-0.74443 0,-1.027954 v 0 c 0.26757,-0.283516 0.702567,-0.283516 0.970145,0 l 3.880592,4.111809 c 0.26757,0.283517 0.26757,0.744431 0,1.027955 v 0 c -0.26757,0.283516 -0.702567,0.283516 -0.970145,0 z"/>
    <g stroke-width=".71">
      <path d="m 19.5,32.5 c -7.168,0 -13,-5.832 -13,-13 0,-7.168 5.832,-13 13,-13 7.168,0 13,5.832 13,13 0,7.168 -5.832,13 -13,13 z" transform="matrix(1.3722 0 0 1.45396 41.07 24.1)"/>
      <path d="M 19.5,7 C 26.393,7 32,12.607 32,19.5 32,26.393 26.393,32 19.5,32 12.607,32 7,26.393 7,19.5 7,12.607 12.607,7 19.5,7 m 0,-1 C 12.044,6 6,12.044 6,19.5 6,26.956 12.044,33 19.5,33 26.956,33 33,26.956 33,19.5 33,12.044 26.956,6 19.5,6 Z" transform="matrix(1.3722 0 0 1.45396 41.07 24.1)"/>
    </g>
  </g>
  <g transform="matrix(1.0277 0 0 .93793 35.16 59.11)" mask="url(#g)" clip-path="url(#h)" fill="#fff" stroke="#fff" stroke-width="1.01">
    <ellipse cy="50.89" cx="67.66" rx="11.65" ry="11.66"/>
    <path d="m 58.363429,30.147264 1.267751,-0.55641 17.651893,45.154616 -1.267752,0.556406 z"/>
    <path d="m 61.559405,29.855343 -4.450057,1.952671 c -0.349929,0.154133 -0.751969,-0.02197 -0.896048,-0.394033 v 0 c -0.145465,-0.370779 0.02074,-0.796769 0.371877,-0.949436 l 4.450058,-1.952672 c 0.349929,-0.154133 0.751969,0.02197 0.896048,0.394033 v 0 c 0.144095,0.370779 -0.02199,0.795313 -0.371878,0.949437 z m 17.50383,44.572722 -4.45006,1.952675 c -0.349928,0.154129 -0.751965,-0.02197 -0.896048,-0.394037 v 0 c -0.145464,-0.370776 0.02074,-0.796769 0.371877,-0.949433 l 4.450057,-1.952682 c 0.349931,-0.154129 0.751965,0.02197 0.896049,0.394037 v 0 c 0.144094,0.370776 -0.02198,0.796776 -0.371875,0.94944 z"/>
    <path d="m 59.629972,75.300579 -1.26775,-0.556405 17.651893,-45.154616 1.267749,0.556414 z"/>
    <path d="m 57.107975,73.084603 4.450057,1.952675 c 0.349929,0.154136 0.515948,0.578678 0.371877,0.949439 v 0 c -0.145464,0.370783 -0.546135,0.546694 -0.896048,0.39403 l -4.450058,-1.952682 c -0.349928,-0.154129 -0.515951,-0.578671 -0.371876,-0.949432 v 0 c 0.145465,-0.370784 0.546136,-0.546694 0.896048,-0.394038 z m 17.5052,-44.572722 4.45006,1.952672 c 0.349925,0.154133 0.515947,0.578675 0.371875,0.949437 v 0 c -0.145467,0.37078 -0.546141,0.546696 -0.896054,0.394033 l -4.450052,-1.952671 c -0.349929,-0.154133 -0.515952,-0.578676 -0.371877,-0.949438 v 0 c 0.144096,-0.370778 0.546136,-0.546696 0.896048,-0.394033 z"/>
    <path d="M 88.869309,42.423288 89.39443,43.766575 46.778986,62.470232 46.253869,61.126946 Z"/>
    <path d="m 89.144811,45.809695 -1.842868,-4.715213 c -0.145463,-0.370776 0.02076,-0.796769 0.37188,-0.949433 v 0 c 0.349926,-0.154136 0.751965,0.02197 0.896045,0.39403 l 1.842869,4.715207 c 0.145467,0.370783 -0.02076,0.796776 -0.371876,0.949439 v 0 c -0.349931,0.152686 -0.750596,-0.02329 -0.89605,-0.39403 z m -42.066269,18.54676 -1.842873,-4.715206 c -0.145464,-0.370776 0.02074,-0.796768 0.371878,-0.949432 v 0 c 0.349929,-0.154136 0.751969,0.02197 0.896048,0.39403 l 1.842868,4.715206 c 0.145464,0.370776 -0.02074,0.796769 -0.371877,0.94944 v 0 c -0.349929,0.152678 -0.751966,-0.02329 -0.896044,-0.394038 z"/>
    <path d="m 46.252599,43.766575 0.525117,-1.343287 42.615445,18.703658 -0.525116,1.343286 z"/>
    <path d="m 48.346454,41.093032 -1.842868,4.715206 c -0.145464,0.370776 -0.546136,0.546686 -0.896048,0.39403 v 0 C 45.257609,46.048139 45.09159,45.623597 45.235661,45.252836 l 1.842872,-4.715207 c 0.145465,-0.370783 0.546137,-0.546694 0.896049,-0.394037 v 0 c 0.349928,0.154129 0.515948,0.578678 0.371872,0.94944 z m 42.066274,18.548217 -1.842869,4.715206 c -0.145463,0.370784 -0.546132,0.546694 -0.896045,0.394038 v 0 c -0.349931,-0.154129 -0.515947,-0.578679 -0.37188,-0.94944 l 1.842868,-4.715206 c 0.145468,-0.370783 0.546142,-0.546687 0.896054,-0.39403 v 0 c 0.349886,0.152678 0.515947,0.578671 0.371876,0.949432 z M 67.137413,25.548703 h 1.372202 v 53.79667 h -1.372202 z"/>
    <path d="m 70.567921,27.002663 h -5.488815 c -0.378723,0 -0.686103,-0.325672 -0.686103,-0.726978 v 0 c 0,-0.401288 0.307359,-0.726982 0.686103,-0.726982 h 5.488815 c 0.378724,0 0.6861,0.325672 0.6861,0.726982 v 0 c 0,0.401289 -0.30736,0.726978 -0.6861,0.726978 z"/>
    <path d="m 42.43775,53.174019 v -1.453961 h 50.771526 v 1.453961 z"/>
    <path d="m 43.809953,49.539105 v 5.815867 c 0,0.401288 -0.307361,0.726977 -0.686104,0.726977 v 0 c -0.378724,0 -0.686099,-0.325674 -0.686099,-0.726977 v -5.815867 c 0,-0.401288 0.307359,-0.726977 0.686099,-0.726977 v 0 c 0.378723,0 0.686104,0.325674 0.686104,0.726977 z m 49.399323,0 v 5.815867 c 0,0.401288 -0.30735,0.726977 -0.6861,0.726977 v 0 c -0.37872,0 -0.686097,-0.325674 -0.686097,-0.726977 v -5.815867 c 0,-0.401288 0.30736,-0.726977 0.686097,-0.726977 v 0 c 0.37873,0 0.6861,0.325674 0.6861,0.726977 z M 70.567921,79.345373 h -5.488815 c -0.378723,0 -0.686103,-0.325674 -0.686103,-0.726977 v 0 c 0,-0.401288 0.307359,-0.726984 0.686103,-0.726984 h 5.488815 c 0.378724,0 0.6861,0.325674 0.6861,0.726984 v 0 c 0,0.401288 -0.30736,0.726977 -0.6861,0.726977 z"/>
    <path d="m 84.491542,33.758399 0.970278,1.028126 -34.305359,36.34812 -0.970279,-1.028122 z"/>
    <path d="M 86.548605,36.718052 82.668008,32.60624 c -0.267571,-0.283512 -0.267571,-0.744428 0,-1.027949 v 0 c 0.26757,-0.283512 0.702572,-0.283512 0.970151,0 l 3.880593,4.11181 c 0.26757,0.283514 0.26757,0.744428 0,1.027951 v 0 c -0.26757,0.283513 -0.701194,0.283513 -0.970147,0 z"/>
    <path d="m 50.185211,34.786525 0.970274,-1.028126 34.305361,36.348124 -0.970278,1.028122 z"/>
    <path d="m 52.979015,32.60624 -3.880592,4.111812 c -0.26757,0.283513 -0.702566,0.283513 -0.970145,0 v 0 c -0.26757,-0.283514 -0.26757,-0.744429 0,-1.027951 l 3.880592,-4.11181 c 0.26757,-0.283512 0.702566,-0.283512 0.970145,0 v 0 c 0.26757,0.283512 0.26757,0.742972 0,1.027949 z m 34.54111,36.597732 -3.880593,4.111809 c -0.26757,0.283517 -0.702572,0.283517 -0.970151,0 v 0 c -0.267571,-0.283516 -0.267571,-0.744423 0,-1.027947 l 3.880597,-4.111809 c 0.267571,-0.283516 0.702568,-0.283516 0.970147,0 v 0 c 0.267571,0.283509 0.267571,0.744423 0,1.027947 z m -35.511255,4.113267 -3.880592,-4.11181 c -0.26757,-0.283516 -0.26757,-0.74443 0,-1.027954 v 0 c 0.26757,-0.283516 0.702567,-0.283516 0.970145,0 l 3.880592,4.111809 c 0.26757,0.283517 0.26757,0.744431 0,1.027955 v 0 c -0.26757,0.283516 -0.702567,0.283516 -0.970145,0 z"/>
    <g stroke-width=".71">
      <path d="m 19.5,32.5 c -7.168,0 -13,-5.832 -13,-13 0,-7.168 5.832,-13 13,-13 7.168,0 13,5.832 13,13 0,7.168 -5.832,13 -13,13 z" transform="matrix(1.3722 0 0 1.45396 41.07 24.1)"/>
      <path d="M 19.5,7 C 26.393,7 32,12.607 32,19.5 32,26.393 26.393,32 19.5,32 12.607,32 7,26.393 7,19.5 7,12.607 12.607,7 19.5,7 m 0,-1 C 12.044,6 6,12.044 6,19.5 6,26.956 12.044,33 19.5,33 26.956,33 33,26.956 33,19.5 33,12.044 26.956,6 19.5,6 Z" transform="matrix(1.3722 0 0 1.45396 41.07 24.1)"/>
    </g>
  </g>
</svg>